<svg width="119" height="203" viewBox="0 0 119 203" fill="none" xmlns="http://www.w3.org/2000/svg">
<g filter="url(#filter0_i_211_151)">
<path fill-rule="evenodd" clip-rule="evenodd" d="M100.406 57.9696L119 68.7047L100.406 79.4398L62.3723 101.399L100.406 123.358L119 134.093L100.406 144.828L18.5938 192.062L3.54907e-05 202.797L3.64292e-05 181.327L4.05586e-05 86.8583L0 83.672V21.4702V0L18.5937 10.7351L100.406 57.9696ZM18.5937 32.2053L81.8125 68.7047L46.5379 89.0705L18.5937 72.9369V32.2053ZM18.5938 97.5934L81.8125 134.093L18.5938 170.592L18.5938 97.5934Z" fill="url(#paint0_linear_211_151)"/>
</g>
<defs>
<filter id="filter0_i_211_151" x="0" y="0" width="124.578" height="212.714" filterUnits="userSpaceOnUse" color-interpolation-filters="sRGB">
<feFlood flood-opacity="0" result="BackgroundImageFix"/>
<feBlend mode="normal" in="SourceGraphic" in2="BackgroundImageFix" result="shape"/>
<feColorMatrix in="SourceAlpha" type="matrix" values="0 0 0 0 0 0 0 0 0 0 0 0 0 0 0 0 0 0 127 0" result="hardAlpha"/>
<feOffset dx="5.57812" dy="9.91667"/>
<feGaussianBlur stdDeviation="5.26823"/>
<feComposite in2="hardAlpha" operator="arithmetic" k2="-1" k3="1"/>
<feColorMatrix type="matrix" values="0 0 0 0 0 0 0 0 0 0 0 0 0 0 0 0 0 0 0.45 0"/>
<feBlend mode="normal" in2="shape" result="effect1_innerShadow_211_151"/>
</filter>
<linearGradient id="paint0_linear_211_151" x1="72" y1="123.5" x2="-2.5" y2="69" gradientUnits="userSpaceOnUse">
<stop stop-color="#37C8AB"/>
<stop offset="1" stop-color="#C82AFF"/>
</linearGradient>
</defs>
</svg>
